<?xml version="1.0" encoding="UTF-8" standalone="no"?>
<svg
   xmlns:dc="http://purl.org/dc/elements/1.1/"
   xmlns:cc="http://creativecommons.org/ns#"
   xmlns:rdf="http://www.w3.org/1999/02/22-rdf-syntax-ns#"
   xmlns:svg="http://www.w3.org/2000/svg"
   xmlns="http://www.w3.org/2000/svg"
   xmlns:sodipodi="http://sodipodi.sourceforge.net/DTD/sodipodi-0.dtd"
   xmlns:inkscape="http://www.inkscape.org/namespaces/inkscape"
   width="265.91742"
   height="106.95091"
   viewBox="0 0 265.91742 106.95091"
   fill="none"
   version="1.1"
   id="svg8"
   sodipodi:docname="logo.svg"
   inkscape:version="1.0.1 (3bc2e813f5, 2020-09-07)">
  <metadata
     id="metadata14">
    <rdf:RDF>
      <cc:Work
         rdf:about="">
        <dc:format>image/svg+xml</dc:format>
        <dc:type
           rdf:resource="http://purl.org/dc/dcmitype/StillImage" />
      </cc:Work>
    </rdf:RDF>
  </metadata>
  <defs
     id="defs12" />
  <sodipodi:namedview
     pagecolor="#ffffff"
     bordercolor="#666666"
     borderopacity="1"
     objecttolerance="10"
     gridtolerance="10"
     guidetolerance="10"
     inkscape:pageopacity="0"
     inkscape:pageshadow="2"
     inkscape:window-width="1920"
     inkscape:window-height="1027"
     id="namedview10"
     showgrid="false"
     inkscape:zoom="1.9850344"
     inkscape:cx="-41.974669"
     inkscape:cy="-38.200152"
     inkscape:window-x="-8"
     inkscape:window-y="-8"
     inkscape:window-maximized="1"
     inkscape:current-layer="svg8" />
  <path
     d="M 67.1961,1.00744 67.1355,1 H 67.0744 11.4831 10.5902 L 10.4895,1.8872 10.0386,5.85921 9.94748,6.66175 10.7129,6.91966 21.8204,10.6623 v 85.5111 l -11.1457,3.8346 -0.75883,0.261 0.09053,0.797 0.4509,3.972 0.1021,0.9 0.905,-0.013 20.954,-0.283 20.8895,0.283 0.9423,0.013 0.0686,-0.94 0.2899,-3.972 0.056,-0.766 -0.7264,-0.252 -11.0829,-3.8333 V 60.7518 h 13.5259 0.117 l 0.1138,-0.0271 c 3.1969,-0.7585 8.9613,-2.2025 13.92,-3.4553 2.4807,-0.6267 4.762,-1.2061 6.4231,-1.6288 0.8306,-0.2114 1.5062,-0.3836 1.9741,-0.5029 L 79.4689,55 l 0.1407,-0.036 0.036,-0.0091 0.009,-0.0024 0.0023,-6e-4 6e-4,-1e-4 c 1e-4,0 2e-4,-10e-5 -0.2474,-0.9689 l 0.2476,0.9688 0.3848,-0.0983 0.2125,-0.3356 14.5903,-23.0439 0.311,-0.4913 L 94.8832,30.4693 80.2929,3.04348 80.0485,2.58396 79.5318,2.52059 Z M 72.0171,40.6171 53.8075,53.0501 42.8876,51.0089 V 10.8541 l 10.9078,-1.4159 18.2272,11.7707 5.4053,9.7286 z"
     stroke="#ffffff"
     stroke-width="2"
     id="path2" />
  <rect
     y="64"
     width="265.91742"
     height="24"
     fill="#161730"
     id="rect4"
     x="0"
     style="stroke-width:1.21884" />
  <g
     style="fill:#ffffff"
     id="g869"
     transform="translate(8.361)">
    <path
       d="M 4.71,83.018 H 14.79 V 81.272 H 7.68 c 1.944,-1.17 3.078,-1.962 3.996,-2.736 2.016,-1.71 2.934,-3.258 2.934,-5.148 0,-2.682 -1.872,-4.356 -5.112,-4.356 -3.51,0 -5.508,1.944 -5.508,4.986 0,0.414 0.036,0.648 0.18,1.188 h 1.764 c -0.144,-0.558 -0.18,-0.756 -0.18,-1.08 0,-2.07 1.404,-3.474 3.78,-3.474 2.034,0 3.222,1.044 3.222,2.79 0,1.296 -0.648,2.484 -2.358,3.942 C 9.3,78.32 7.77,79.364 4.71,81.272 Z m 17.7293,0.27 c 4.014,0 5.634,-3.348 5.634,-7.128 0,-3.78 -1.62,-7.128 -5.634,-7.128 -4.014,0 -5.67,3.348 -5.67,7.128 0,3.78 1.656,7.128 5.67,7.128 z m -0.018,-1.656 c -2.682,0 -3.87,-2.484 -3.87,-5.472 0,-2.988 1.188,-5.472 3.87,-5.472 2.682,0 3.87,2.484 3.87,5.472 0,2.988 -1.188,5.472 -3.87,5.472 z m 8.3571,1.386 h 10.08 v -1.746 h -7.11 c 1.944,-1.17 3.078,-1.962 3.996,-2.736 2.016,-1.71 2.934,-3.258 2.934,-5.148 0,-2.682 -1.872,-4.356 -5.112,-4.356 -3.51,0 -5.508,1.944 -5.508,4.986 0,0.414 0.036,0.648 0.18,1.188 h 1.764 c -0.144,-0.558 -0.18,-0.756 -0.18,-1.08 0,-2.07 1.404,-3.474 3.78,-3.474 2.034,0 3.222,1.044 3.222,2.79 0,1.296 -0.648,2.484 -2.358,3.942 -1.098,0.936 -2.628,1.98 -5.688,3.888 z M 45.0517,83 h 1.746 V 69.32 h -4.464 v 1.746 h 2.718 z m 15.225,0.018 c 3.996,0.018 5.868,-2.646 5.868,-6.786 0,-4.734 -2.448,-6.912 -6.192,-6.912 h -4.986 L 54.9487,83 Z M 56.7487,81.29 V 71.03 h 3.168 c 2.952,0 4.338,1.98 4.338,5.112 0,3.546 -1.728,5.148 -4.338,5.148 z m 15.3644,1.998 c 2.628,0 4.014,-1.746 4.194,-3.024 h -1.728 c -0.252,0.666 -1.116,1.512 -2.466,1.512 -1.638,0 -2.556,-1.134 -2.718,-2.88 l 6.912,-0.018 v -1.476 c 0,-2.502 -1.782,-4.14 -4.266,-4.14 -2.79,0 -4.428,2.07 -4.428,4.986 0,2.862 1.566,5.04 4.5,5.04 z m -2.7,-5.796 c 0,-1.872 1.206,-2.718 2.61,-2.718 1.404,0 2.556,0.846 2.556,2.718 z m 20.2808,-4.23 c -1.26,0 -2.574,0.432 -3.582,1.89 -0.504,-1.278 -1.548,-1.89 -3.006,-1.89 -1.296,0 -2.484,0.468 -3.24,1.71 V 73.55 h -1.746 V 83 h 1.746 v -5.148 c 0,-1.944 1.188,-3.078 2.808,-3.078 1.026,0 2.034,0.468 2.034,2.592 V 83 h 1.746 v -5.148 c 0,-1.944 1.188,-3.078 2.808,-3.078 1.026,0 2.034,0.468 2.034,2.592 V 83 h 1.746 v -5.76 c 0,-2.7 -1.242,-3.978 -3.348,-3.978 z m 9.7201,10.026 c 2.754,0 4.554,-2.196 4.554,-5.022 0,-2.916 -1.8,-5.004 -4.554,-5.004 -2.754,0 -4.59,2.088 -4.59,5.004 0,2.826 1.836,5.022 4.59,5.022 z m -0.018,-1.512 c -1.818,0 -2.826,-1.404 -2.826,-3.51 0,-2.088 1.008,-3.492 2.826,-3.492 1.818,0 2.826,1.404 2.826,3.492 0,2.106 -1.008,3.51 -2.826,3.51 z M 113.417,83 h 1.962 L 119.105,71.192 122.831,83 h 1.962 l 3.798,-13.68 h -2.016 l -2.772,11.538 -3.546,-11.538 h -2.304 l -3.546,11.538 -2.772,-11.538 h -2.016 z m 19.481,0.288 c 2.628,0 4.014,-1.746 4.194,-3.024 h -1.728 c -0.252,0.666 -1.116,1.512 -2.466,1.512 -1.638,0 -2.556,-1.134 -2.718,-2.88 l 6.912,-0.018 v -1.476 c 0,-2.502 -1.782,-4.14 -4.266,-4.14 -2.79,0 -4.428,2.07 -4.428,4.986 0,2.862 1.566,5.04 4.5,5.04 z m -2.7,-5.796 c 0,-1.872 1.206,-2.718 2.61,-2.718 1.404,0 2.556,0.846 2.556,2.718 z m 12.667,5.796 c 2.628,0 4.014,-1.746 4.194,-3.024 h -1.728 c -0.252,0.666 -1.116,1.512 -2.466,1.512 -1.638,0 -2.556,-1.134 -2.718,-2.88 l 6.912,-0.018 v -1.476 c 0,-2.502 -1.782,-4.14 -4.266,-4.14 -2.79,0 -4.428,2.07 -4.428,4.986 0,2.862 1.566,5.04 4.5,5.04 z m -2.7,-5.796 c 0,-1.872 1.206,-2.718 2.61,-2.718 1.404,0 2.556,0.846 2.556,2.718 z m 16.087,5.508 -4.068,-4.734 3.708,-4.716 h -2.016 l -3.258,4.14 v -8.37 h -1.746 V 83 h 1.746 V 78.788 L 154.236,83 Z m 13.32,-3.906 v -1.566 h -7.2 v 1.566 z M 177.187,83 h 1.782 V 76.466 L 184.873,83 h 2.232 l -5.922,-6.534 c 3.024,0 5.364,-0.702 5.364,-3.492 0,-2.484 -1.728,-3.654 -4.572,-3.654 h -4.788 z m 1.782,-8.064 V 70.94 h 2.952 c 1.962,0 2.826,0.81 2.826,2.016 0,1.35 -1.26,1.98 -2.556,1.98 z m 13.064,8.352 c 2.754,0 4.554,-2.196 4.554,-5.022 0,-2.916 -1.8,-5.004 -4.554,-5.004 -2.754,0 -4.59,2.088 -4.59,5.004 0,2.826 1.836,5.022 4.59,5.022 z m -0.018,-1.512 c -1.818,0 -2.826,-1.404 -2.826,-3.51 0,-2.088 1.008,-3.492 2.826,-3.492 1.818,0 2.826,1.404 2.826,3.492 0,2.106 -1.008,3.51 -2.826,3.51 z m 9.365,1.512 c 1.296,0 2.484,-0.468 3.24,-1.89 V 83 h 1.746 v -9.45 h -1.746 v 5.148 c 0,1.944 -1.188,3.078 -2.808,3.078 -1.026,0 -2.034,-0.468 -2.034,-2.592 V 73.55 h -1.746 v 5.76 c 0,2.7 1.242,3.978 3.348,3.978 z M 208.602,83 h 1.746 v -5.148 c 0,-1.944 1.242,-3.078 2.7,-3.078 1.386,0 2.142,1.044 2.142,2.772 V 83 h 1.746 v -5.94 c 0,-2.214 -1.296,-3.798 -3.42,-3.798 -1.08,0 -2.394,0.414 -3.168,1.71 V 73.55 h -1.746 z m 17.727,-13.68 v 5.508 c -0.738,-0.954 -1.908,-1.566 -3.078,-1.566 -2.592,0 -4.32,1.998 -4.32,4.986 0,3.024 1.692,5.04 4.23,5.04 1.242,0 2.574,-0.594 3.222,-1.476 V 83 h 1.692 V 69.32 Z m 0,9.36 c 0,1.854 -1.116,3.078 -2.808,3.078 -1.71,0 -2.844,-1.404 -2.844,-3.528 0,-2.07 1.116,-3.438 2.808,-3.438 1.71,0 2.844,1.134 2.844,2.844 z m 13.95,4.644 c 4.014,0 5.382,-2.268 5.382,-4.212 0,-1.548 -0.774,-2.79 -2.52,-3.42 1.422,-0.81 1.89,-1.89 1.89,-2.898 0,-1.746 -1.332,-3.708 -4.752,-3.708 -3.33,0 -4.77,1.98 -4.77,3.798 0,0.936 0.45,1.998 1.89,2.808 -1.764,0.63 -2.538,1.908 -2.538,3.42 0,1.944 1.44,4.212 5.418,4.212 z m -0.018,-8.352 c -2.124,0 -2.952,-1.008 -2.952,-2.124 0,-1.116 0.828,-2.196 2.952,-2.196 2.124,0 2.898,1.08 2.898,2.196 0,1.116 -0.774,2.124 -2.898,2.124 z m 0,6.75 c -2.754,0 -3.6,-1.422 -3.6,-2.538 0,-1.35 0.882,-2.538 3.6,-2.538 2.772,0 3.582,1.332 3.582,2.538 0,1.116 -0.846,2.538 -3.582,2.538 z"
       fill="#ffffff"
       id="path857"
       style="fill:#ffffff" />
  </g>
</svg>
