<svg width="660" height="372" viewBox="0 0 660 372" fill="none" xmlns="http://www.w3.org/2000/svg">
<rect width="660" height="371.25" fill="black"/>
<path d="M350.406 105.245L350.345 105.237H350.284H294.693H293.8L293.699 106.125L293.249 110.097L293.157 110.899L293.923 111.157L305.03 114.9V200.411L293.885 204.245L293.126 204.506L293.216 205.304L293.667 209.276L293.769 210.175L294.674 210.163L315.628 209.879L336.518 210.163L337.46 210.175L337.529 209.236L337.819 205.264L337.875 204.497L337.148 204.246L326.065 200.412V164.989H339.591H339.708L339.822 164.962C343.019 164.204 348.783 162.759 353.742 161.507C356.223 160.88 358.504 160.301 360.165 159.878C360.996 159.667 361.671 159.494 362.139 159.375L362.679 159.237L362.82 159.201L362.856 159.192L362.865 159.19L362.867 159.189L362.867 159.189C362.868 159.189 362.868 159.189 362.62 158.22L362.868 159.189L363.252 159.091L363.465 158.755L378.055 135.711L378.366 135.22L378.093 134.707L363.503 107.281L363.258 106.821L362.742 106.758L350.406 105.245ZM355.227 144.854L337.018 157.287L326.098 155.246V115.091L337.005 113.676L355.233 125.446L360.638 135.175L355.227 144.854Z" stroke="white" stroke-width="2"/>
<path d="M260.71 238.616H270.79V236.87H263.68C265.624 235.7 266.758 234.908 267.676 234.134C269.692 232.424 270.61 230.876 270.61 228.986C270.61 226.304 268.738 224.63 265.498 224.63C261.988 224.63 259.99 226.574 259.99 229.616C259.99 230.03 260.026 230.264 260.17 230.804H261.934C261.79 230.246 261.754 230.048 261.754 229.724C261.754 227.654 263.158 226.25 265.534 226.25C267.568 226.25 268.756 227.294 268.756 229.04C268.756 230.336 268.108 231.524 266.398 232.982C265.3 233.918 263.77 234.962 260.71 236.87V238.616ZM278.439 238.886C282.453 238.886 284.073 235.538 284.073 231.758C284.073 227.978 282.453 224.63 278.439 224.63C274.425 224.63 272.769 227.978 272.769 231.758C272.769 235.538 274.425 238.886 278.439 238.886ZM278.421 237.23C275.739 237.23 274.551 234.746 274.551 231.758C274.551 228.77 275.739 226.286 278.421 226.286C281.103 226.286 282.291 228.77 282.291 231.758C282.291 234.746 281.103 237.23 278.421 237.23ZM286.778 238.616H296.858V236.87H289.748C291.692 235.7 292.826 234.908 293.744 234.134C295.76 232.424 296.678 230.876 296.678 228.986C296.678 226.304 294.806 224.63 291.566 224.63C288.056 224.63 286.058 226.574 286.058 229.616C286.058 230.03 286.094 230.264 286.238 230.804H288.002C287.858 230.246 287.822 230.048 287.822 229.724C287.822 227.654 289.226 226.25 291.602 226.25C293.636 226.25 294.824 227.294 294.824 229.04C294.824 230.336 294.176 231.524 292.466 232.982C291.368 233.918 289.838 234.962 286.778 236.87V238.616ZM301.052 238.598H302.798V224.918H298.334V226.664H301.052V238.598ZM316.277 238.616C320.273 238.634 322.145 235.97 322.145 231.83C322.145 227.096 319.697 224.918 315.953 224.918H310.967L310.949 238.598L316.277 238.616ZM312.749 236.888V226.628H315.917C318.869 226.628 320.255 228.608 320.255 231.74C320.255 235.286 318.527 236.888 315.917 236.888H312.749ZM328.113 238.886C330.741 238.886 332.127 237.14 332.307 235.862H330.579C330.327 236.528 329.463 237.374 328.113 237.374C326.475 237.374 325.557 236.24 325.395 234.494L332.307 234.476V233C332.307 230.498 330.525 228.86 328.041 228.86C325.251 228.86 323.613 230.93 323.613 233.846C323.613 236.708 325.179 238.886 328.113 238.886ZM325.413 233.09C325.413 231.218 326.619 230.372 328.023 230.372C329.427 230.372 330.579 231.218 330.579 233.09H325.413ZM345.694 228.86C344.434 228.86 343.12 229.292 342.112 230.75C341.608 229.472 340.564 228.86 339.106 228.86C337.81 228.86 336.622 229.328 335.866 230.57V229.148H334.12V238.598H335.866V233.45C335.866 231.506 337.054 230.372 338.674 230.372C339.7 230.372 340.708 230.84 340.708 232.964V238.598H342.454V233.45C342.454 231.506 343.642 230.372 345.262 230.372C346.288 230.372 347.296 230.84 347.296 232.964V238.598H349.042V232.838C349.042 230.138 347.8 228.86 345.694 228.86ZM355.414 238.886C358.168 238.886 359.968 236.69 359.968 233.864C359.968 230.948 358.168 228.86 355.414 228.86C352.66 228.86 350.824 230.948 350.824 233.864C350.824 236.69 352.66 238.886 355.414 238.886ZM355.396 237.374C353.578 237.374 352.57 235.97 352.57 233.864C352.57 231.776 353.578 230.372 355.396 230.372C357.214 230.372 358.222 231.776 358.222 233.864C358.222 235.97 357.214 237.374 355.396 237.374ZM369.417 238.598H371.379L375.105 226.79L378.831 238.598H380.793L384.591 224.918H382.575L379.803 236.456L376.257 224.918H373.953L370.407 236.456L367.635 224.918H365.619L369.417 238.598ZM388.898 238.886C391.526 238.886 392.912 237.14 393.092 235.862H391.364C391.112 236.528 390.248 237.374 388.898 237.374C387.26 237.374 386.342 236.24 386.18 234.494L393.092 234.476V233C393.092 230.498 391.31 228.86 388.826 228.86C386.036 228.86 384.398 230.93 384.398 233.846C384.398 236.708 385.964 238.886 388.898 238.886ZM386.198 233.09C386.198 231.218 387.404 230.372 388.808 230.372C390.212 230.372 391.364 231.218 391.364 233.09H386.198ZM398.865 238.886C401.493 238.886 402.879 237.14 403.059 235.862H401.331C401.079 236.528 400.215 237.374 398.865 237.374C397.227 237.374 396.309 236.24 396.147 234.494L403.059 234.476V233C403.059 230.498 401.277 228.86 398.793 228.86C396.003 228.86 394.365 230.93 394.365 233.846C394.365 236.708 395.931 238.886 398.865 238.886ZM396.165 233.09C396.165 231.218 397.371 230.372 398.775 230.372C400.179 230.372 401.331 231.218 401.331 233.09H396.165ZM412.252 238.598L408.184 233.864L411.892 229.148H409.876L406.618 233.288V224.918H404.872V238.598H406.618V234.386L410.236 238.598H412.252Z" fill="white"/>
<path d="M315.44 209.162V212.907L318.552 210.825L355.092 186.38L357.577 184.718L355.092 183.056L318.552 158.611L315.44 156.529V160.273V165.088V209.162Z" fill="#FF0080" stroke="black" stroke-width="4"/>
</svg>
