<svg width="244" height="107" viewBox="0 0 244 107" fill="none" xmlns="http://www.w3.org/2000/svg">
<rect x="104" y="64" width="37" height="29" fill="#161730"/>
<path d="M137.196 1.00744L137.135 1H137.074H81.4831H80.5902L80.4895 1.8872L80.0386 5.85921L79.9475 6.66175L80.7129 6.91966L91.8204 10.6623V96.1734L80.6747 100.008L79.9159 100.269L80.0064 101.066L80.4573 105.038L80.5594 105.938L81.4644 105.925L102.418 105.642L123.308 105.925L124.25 105.938L124.319 104.998L124.609 101.026L124.665 100.26L123.938 100.008L112.855 96.1747V60.7518H126.381H126.498L126.612 60.7247C129.809 59.9662 135.573 58.5222 140.532 57.2694C143.013 56.6427 145.294 56.0633 146.955 55.6406C147.786 55.4292 148.461 55.257 148.929 55.1377L149.469 55L149.61 54.964L149.646 54.9549L149.655 54.9525L149.657 54.9519L149.658 54.9518C149.658 54.9518 149.658 54.9517 149.41 53.9829L149.658 54.9517L150.043 54.8534L150.255 54.5178L164.845 31.4739L165.156 30.9826L164.883 30.4693L150.293 3.04348L150.048 2.58396L149.532 2.52059L137.196 1.00744ZM142.017 40.6171L123.808 53.0501L112.888 51.0089V10.8541L123.795 9.4382L142.023 21.2089L147.428 30.9375L142.017 40.6171Z" stroke="white" stroke-width="2"/>
<rect x="33" y="64" width="179" height="24" fill="#161730"/>
<path d="M1.71 83.018H11.79V81.272H4.68C6.624 80.102 7.758 79.31 8.676 78.536C10.692 76.826 11.61 75.278 11.61 73.388C11.61 70.706 9.738 69.032 6.498 69.032C2.988 69.032 0.99 70.976 0.99 74.018C0.99 74.432 1.026 74.666 1.17 75.206H2.934C2.79 74.648 2.754 74.45 2.754 74.126C2.754 72.056 4.158 70.652 6.534 70.652C8.568 70.652 9.756 71.696 9.756 73.442C9.756 74.738 9.108 75.926 7.398 77.384C6.3 78.32 4.77 79.364 1.71 81.272V83.018ZM19.4393 83.288C23.4533 83.288 25.0733 79.94 25.0733 76.16C25.0733 72.38 23.4533 69.032 19.4393 69.032C15.4253 69.032 13.7693 72.38 13.7693 76.16C13.7693 79.94 15.4253 83.288 19.4393 83.288ZM19.4213 81.632C16.7393 81.632 15.5513 79.148 15.5513 76.16C15.5513 73.172 16.7393 70.688 19.4213 70.688C22.1033 70.688 23.2913 73.172 23.2913 76.16C23.2913 79.148 22.1033 81.632 19.4213 81.632ZM27.7784 83.018H37.8584V81.272H30.7484C32.6924 80.102 33.8264 79.31 34.7444 78.536C36.7604 76.826 37.6784 75.278 37.6784 73.388C37.6784 70.706 35.8064 69.032 32.5664 69.032C29.0564 69.032 27.0584 70.976 27.0584 74.018C27.0584 74.432 27.0944 74.666 27.2384 75.206H29.0024C28.8584 74.648 28.8224 74.45 28.8224 74.126C28.8224 72.056 30.2264 70.652 32.6024 70.652C34.6364 70.652 35.8244 71.696 35.8244 73.442C35.8244 74.738 35.1764 75.926 33.4664 77.384C32.3684 78.32 30.8384 79.364 27.7784 81.272V83.018ZM42.0517 83H43.7977V69.32H39.3337V71.066H42.0517V83ZM57.2767 83.018C61.2727 83.036 63.1447 80.372 63.1447 76.232C63.1447 71.498 60.6967 69.32 56.9527 69.32H51.9667L51.9487 83L57.2767 83.018ZM53.7487 81.29V71.03H56.9167C59.8687 71.03 61.2547 73.01 61.2547 76.142C61.2547 79.688 59.5267 81.29 56.9167 81.29H53.7487ZM69.1131 83.288C71.7411 83.288 73.1271 81.542 73.3071 80.264H71.5791C71.3271 80.93 70.4631 81.776 69.1131 81.776C67.4751 81.776 66.5571 80.642 66.3951 78.896L73.3071 78.878V77.402C73.3071 74.9 71.5251 73.262 69.0411 73.262C66.2511 73.262 64.6131 75.332 64.6131 78.248C64.6131 81.11 66.1791 83.288 69.1131 83.288ZM66.4131 77.492C66.4131 75.62 67.6191 74.774 69.0231 74.774C70.4271 74.774 71.5791 75.62 71.5791 77.492H66.4131ZM86.6939 73.262C85.4339 73.262 84.1199 73.694 83.1119 75.152C82.6079 73.874 81.5639 73.262 80.1059 73.262C78.8099 73.262 77.6219 73.73 76.8659 74.972V73.55H75.1199V83H76.8659V77.852C76.8659 75.908 78.0539 74.774 79.6739 74.774C80.6999 74.774 81.7079 75.242 81.7079 77.366V83H83.4539V77.852C83.4539 75.908 84.6419 74.774 86.2619 74.774C87.2879 74.774 88.2959 75.242 88.2959 77.366V83H90.0419V77.24C90.0419 74.54 88.7999 73.262 86.6939 73.262ZM96.414 83.288C99.168 83.288 100.968 81.092 100.968 78.266C100.968 75.35 99.168 73.262 96.414 73.262C93.66 73.262 91.824 75.35 91.824 78.266C91.824 81.092 93.66 83.288 96.414 83.288ZM96.396 81.776C94.578 81.776 93.57 80.372 93.57 78.266C93.57 76.178 94.578 74.774 96.396 74.774C98.214 74.774 99.222 76.178 99.222 78.266C99.222 80.372 98.214 81.776 96.396 81.776ZM110.417 83H112.379L116.105 71.192L119.831 83H121.793L125.591 69.32H123.575L120.803 80.858L117.257 69.32H114.953L111.407 80.858L108.635 69.32H106.619L110.417 83ZM129.898 83.288C132.526 83.288 133.912 81.542 134.092 80.264H132.364C132.112 80.93 131.248 81.776 129.898 81.776C128.26 81.776 127.342 80.642 127.18 78.896L134.092 78.878V77.402C134.092 74.9 132.31 73.262 129.826 73.262C127.036 73.262 125.398 75.332 125.398 78.248C125.398 81.11 126.964 83.288 129.898 83.288ZM127.198 77.492C127.198 75.62 128.404 74.774 129.808 74.774C131.212 74.774 132.364 75.62 132.364 77.492H127.198ZM139.865 83.288C142.493 83.288 143.879 81.542 144.059 80.264H142.331C142.079 80.93 141.215 81.776 139.865 81.776C138.227 81.776 137.309 80.642 137.147 78.896L144.059 78.878V77.402C144.059 74.9 142.277 73.262 139.793 73.262C137.003 73.262 135.365 75.332 135.365 78.248C135.365 81.11 136.931 83.288 139.865 83.288ZM137.165 77.492C137.165 75.62 138.371 74.774 139.775 74.774C141.179 74.774 142.331 75.62 142.331 77.492H137.165ZM153.252 83L149.184 78.266L152.892 73.55H150.876L147.618 77.69V69.32H145.872V83H147.618V78.788L151.236 83H153.252ZM166.572 79.094V77.528H159.372V79.094H166.572ZM174.187 83H175.969V76.466L181.873 83H184.105L178.183 76.466C181.207 76.466 183.547 75.764 183.547 72.974C183.547 70.49 181.819 69.32 178.975 69.32H174.187V83ZM175.969 74.936V70.94H178.921C180.883 70.94 181.747 71.75 181.747 72.956C181.747 74.306 180.487 74.936 179.191 74.936H175.969ZM189.033 83.288C191.787 83.288 193.587 81.092 193.587 78.266C193.587 75.35 191.787 73.262 189.033 73.262C186.279 73.262 184.443 75.35 184.443 78.266C184.443 81.092 186.279 83.288 189.033 83.288ZM189.015 81.776C187.197 81.776 186.189 80.372 186.189 78.266C186.189 76.178 187.197 74.774 189.015 74.774C190.833 74.774 191.841 76.178 191.841 78.266C191.841 80.372 190.833 81.776 189.015 81.776ZM198.38 83.288C199.676 83.288 200.864 82.82 201.62 81.398V83H203.366V73.55H201.62V78.698C201.62 80.642 200.432 81.776 198.812 81.776C197.786 81.776 196.778 81.308 196.778 79.184V73.55H195.032V79.31C195.032 82.01 196.274 83.288 198.38 83.288ZM205.602 83H207.348V77.852C207.348 75.908 208.59 74.774 210.048 74.774C211.434 74.774 212.19 75.818 212.19 77.546V83H213.936V77.06C213.936 74.846 212.64 73.262 210.516 73.262C209.436 73.262 208.122 73.676 207.348 74.972V73.55H205.602V83ZM223.329 69.32V74.828C222.591 73.874 221.421 73.262 220.251 73.262C217.659 73.262 215.931 75.26 215.931 78.248C215.931 81.272 217.623 83.288 220.161 83.288C221.403 83.288 222.735 82.694 223.383 81.812V83H225.075V69.32H223.329ZM223.329 78.68C223.329 80.534 222.213 81.758 220.521 81.758C218.811 81.758 217.677 80.354 217.677 78.23C217.677 76.16 218.793 74.792 220.485 74.792C222.195 74.792 223.329 75.926 223.329 77.636V78.68ZM237.279 83.324C241.293 83.324 242.661 81.056 242.661 79.112C242.661 77.564 241.887 76.322 240.141 75.692C241.563 74.882 242.031 73.802 242.031 72.794C242.031 71.048 240.699 69.086 237.279 69.086C233.949 69.086 232.509 71.066 232.509 72.884C232.509 73.82 232.959 74.882 234.399 75.692C232.635 76.322 231.861 77.6 231.861 79.112C231.861 81.056 233.301 83.324 237.279 83.324ZM237.261 74.972C235.137 74.972 234.309 73.964 234.309 72.848C234.309 71.732 235.137 70.652 237.261 70.652C239.385 70.652 240.159 71.732 240.159 72.848C240.159 73.964 239.385 74.972 237.261 74.972ZM237.261 81.722C234.507 81.722 233.661 80.3 233.661 79.184C233.661 77.834 234.543 76.646 237.261 76.646C240.033 76.646 240.843 77.978 240.843 79.184C240.843 80.3 239.997 81.722 237.261 81.722Z" fill="white"/>
</svg>
