<svg width="660" height="372" viewBox="0 0 660 372" fill="none" xmlns="http://www.w3.org/2000/svg">
<rect y="0.75" width="660" height="371.25" fill="black"/>
<path d="M350.406 105.995L350.345 105.987H350.284H294.693H293.8L293.699 106.875L293.249 110.847L293.157 111.649L293.923 111.907L305.03 115.65V201.161L293.885 204.995L293.126 205.256L293.216 206.054L293.667 210.026L293.769 210.925L294.674 210.913L315.628 210.629L336.518 210.913L337.46 210.925L337.529 209.986L337.819 206.014L337.875 205.247L337.148 204.996L326.065 201.162V165.739H339.591H339.708L339.822 165.712C343.019 164.954 348.783 163.509 353.742 162.257C356.223 161.63 358.504 161.051 360.165 160.628C360.996 160.417 361.671 160.244 362.139 160.125L362.679 159.987L362.82 159.951L362.856 159.942L362.865 159.94L362.867 159.939L362.867 159.939C362.868 159.939 362.868 159.939 362.62 158.97L362.868 159.939L363.252 159.841L363.465 159.505L378.055 136.461L378.366 135.97L378.093 135.457L363.503 108.031L363.258 107.571L362.742 107.508L350.406 105.995ZM355.227 145.604L337.018 158.037L326.098 155.996V115.841L337.005 114.426L355.233 126.196L360.638 135.925L355.227 145.604Z" stroke="white" stroke-width="2"/>
<path d="M209.71 239.366H219.79V237.62H212.68C214.624 236.45 215.758 235.658 216.676 234.884C218.692 233.174 219.61 231.626 219.61 229.736C219.61 227.054 217.738 225.38 214.498 225.38C210.988 225.38 208.99 227.324 208.99 230.366C208.99 230.78 209.026 231.014 209.17 231.554H210.934C210.79 230.996 210.754 230.798 210.754 230.474C210.754 228.404 212.158 227 214.534 227C216.568 227 217.756 228.044 217.756 229.79C217.756 231.086 217.108 232.274 215.398 233.732C214.3 234.668 212.77 235.712 209.71 237.62V239.366ZM227.439 239.636C231.453 239.636 233.073 236.288 233.073 232.508C233.073 228.728 231.453 225.38 227.439 225.38C223.425 225.38 221.769 228.728 221.769 232.508C221.769 236.288 223.425 239.636 227.439 239.636ZM227.421 237.98C224.739 237.98 223.551 235.496 223.551 232.508C223.551 229.52 224.739 227.036 227.421 227.036C230.103 227.036 231.291 229.52 231.291 232.508C231.291 235.496 230.103 237.98 227.421 237.98ZM235.778 239.366H245.858V237.62H238.748C240.692 236.45 241.826 235.658 242.744 234.884C244.76 233.174 245.678 231.626 245.678 229.736C245.678 227.054 243.806 225.38 240.566 225.38C237.056 225.38 235.058 227.324 235.058 230.366C235.058 230.78 235.094 231.014 235.238 231.554H237.002C236.858 230.996 236.822 230.798 236.822 230.474C236.822 228.404 238.226 227 240.602 227C242.636 227 243.824 228.044 243.824 229.79C243.824 231.086 243.176 232.274 241.466 233.732C240.368 234.668 238.838 235.712 235.778 237.62V239.366ZM250.052 239.348H251.798V225.668H247.334V227.414H250.052V239.348ZM265.277 239.366C269.273 239.384 271.145 236.72 271.145 232.58C271.145 227.846 268.697 225.668 264.953 225.668H259.967L259.949 239.348L265.277 239.366ZM261.749 237.638V227.378H264.917C267.869 227.378 269.255 229.358 269.255 232.49C269.255 236.036 267.527 237.638 264.917 237.638H261.749ZM277.113 239.636C279.741 239.636 281.127 237.89 281.307 236.612H279.579C279.327 237.278 278.463 238.124 277.113 238.124C275.475 238.124 274.557 236.99 274.395 235.244L281.307 235.226V233.75C281.307 231.248 279.525 229.61 277.041 229.61C274.251 229.61 272.613 231.68 272.613 234.596C272.613 237.458 274.179 239.636 277.113 239.636ZM274.413 233.84C274.413 231.968 275.619 231.122 277.023 231.122C278.427 231.122 279.579 231.968 279.579 233.84H274.413ZM294.694 229.61C293.434 229.61 292.12 230.042 291.112 231.5C290.608 230.222 289.564 229.61 288.106 229.61C286.81 229.61 285.622 230.078 284.866 231.32V229.898H283.12V239.348H284.866V234.2C284.866 232.256 286.054 231.122 287.674 231.122C288.7 231.122 289.708 231.59 289.708 233.714V239.348H291.454V234.2C291.454 232.256 292.642 231.122 294.262 231.122C295.288 231.122 296.296 231.59 296.296 233.714V239.348H298.042V233.588C298.042 230.888 296.8 229.61 294.694 229.61ZM304.414 239.636C307.168 239.636 308.968 237.44 308.968 234.614C308.968 231.698 307.168 229.61 304.414 229.61C301.66 229.61 299.824 231.698 299.824 234.614C299.824 237.44 301.66 239.636 304.414 239.636ZM304.396 238.124C302.578 238.124 301.57 236.72 301.57 234.614C301.57 232.526 302.578 231.122 304.396 231.122C306.214 231.122 307.222 232.526 307.222 234.614C307.222 236.72 306.214 238.124 304.396 238.124ZM318.417 239.348H320.379L324.105 227.54L327.831 239.348H329.793L333.591 225.668H331.575L328.803 237.206L325.257 225.668H322.953L319.407 237.206L316.635 225.668H314.619L318.417 239.348ZM337.898 239.636C340.526 239.636 341.912 237.89 342.092 236.612H340.364C340.112 237.278 339.248 238.124 337.898 238.124C336.26 238.124 335.342 236.99 335.18 235.244L342.092 235.226V233.75C342.092 231.248 340.31 229.61 337.826 229.61C335.036 229.61 333.398 231.68 333.398 234.596C333.398 237.458 334.964 239.636 337.898 239.636ZM335.198 233.84C335.198 231.968 336.404 231.122 337.808 231.122C339.212 231.122 340.364 231.968 340.364 233.84H335.198ZM347.865 239.636C350.493 239.636 351.879 237.89 352.059 236.612H350.331C350.079 237.278 349.215 238.124 347.865 238.124C346.227 238.124 345.309 236.99 345.147 235.244L352.059 235.226V233.75C352.059 231.248 350.277 229.61 347.793 229.61C345.003 229.61 343.365 231.68 343.365 234.596C343.365 237.458 344.931 239.636 347.865 239.636ZM345.165 233.84C345.165 231.968 346.371 231.122 347.775 231.122C349.179 231.122 350.331 231.968 350.331 233.84H345.165ZM361.252 239.348L357.184 234.614L360.892 229.898H358.876L355.618 234.038V225.668H353.872V239.348H355.618V235.136L359.236 239.348H361.252ZM374.572 235.442V233.876H367.372V235.442H374.572ZM382.187 239.348H383.969V232.814L389.873 239.348H392.105L386.183 232.814C389.207 232.814 391.547 232.112 391.547 229.322C391.547 226.838 389.819 225.668 386.975 225.668H382.187V239.348ZM383.969 231.284V227.288H386.921C388.883 227.288 389.747 228.098 389.747 229.304C389.747 230.654 388.487 231.284 387.191 231.284H383.969ZM397.033 239.636C399.787 239.636 401.587 237.44 401.587 234.614C401.587 231.698 399.787 229.61 397.033 229.61C394.279 229.61 392.443 231.698 392.443 234.614C392.443 237.44 394.279 239.636 397.033 239.636ZM397.015 238.124C395.197 238.124 394.189 236.72 394.189 234.614C394.189 232.526 395.197 231.122 397.015 231.122C398.833 231.122 399.841 232.526 399.841 234.614C399.841 236.72 398.833 238.124 397.015 238.124ZM406.38 239.636C407.676 239.636 408.864 239.168 409.62 237.746V239.348H411.366V229.898H409.62V235.046C409.62 236.99 408.432 238.124 406.812 238.124C405.786 238.124 404.778 237.656 404.778 235.532V229.898H403.032V235.658C403.032 238.358 404.274 239.636 406.38 239.636ZM413.602 239.348H415.348V234.2C415.348 232.256 416.59 231.122 418.048 231.122C419.434 231.122 420.19 232.166 420.19 233.894V239.348H421.936V233.408C421.936 231.194 420.64 229.61 418.516 229.61C417.436 229.61 416.122 230.024 415.348 231.32V229.898H413.602V239.348ZM431.329 225.668V231.176C430.591 230.222 429.421 229.61 428.251 229.61C425.659 229.61 423.931 231.608 423.931 234.596C423.931 237.62 425.623 239.636 428.161 239.636C429.403 239.636 430.735 239.042 431.383 238.16V239.348H433.075V225.668H431.329ZM431.329 235.028C431.329 236.882 430.213 238.106 428.521 238.106C426.811 238.106 425.677 236.702 425.677 234.578C425.677 232.508 426.793 231.14 428.485 231.14C430.195 231.14 431.329 232.274 431.329 233.984V235.028ZM445.279 239.672C449.293 239.672 450.661 237.404 450.661 235.46C450.661 233.912 449.887 232.67 448.141 232.04C449.563 231.23 450.031 230.15 450.031 229.142C450.031 227.396 448.699 225.434 445.279 225.434C441.949 225.434 440.509 227.414 440.509 229.232C440.509 230.168 440.959 231.23 442.399 232.04C440.635 232.67 439.861 233.948 439.861 235.46C439.861 237.404 441.301 239.672 445.279 239.672ZM445.261 231.32C443.137 231.32 442.309 230.312 442.309 229.196C442.309 228.08 443.137 227 445.261 227C447.385 227 448.159 228.08 448.159 229.196C448.159 230.312 447.385 231.32 445.261 231.32ZM445.261 238.07C442.507 238.07 441.661 236.648 441.661 235.532C441.661 234.182 442.543 232.994 445.261 232.994C448.033 232.994 448.843 234.326 448.843 235.532C448.843 236.648 447.997 238.07 445.261 238.07Z" fill="white"/>
<path d="M315.44 209.912V213.657L318.552 211.575L355.092 187.13L357.577 185.468L355.092 183.806L318.552 159.361L315.44 157.279V161.023V165.838V209.912Z" fill="#FF0080" stroke="black" stroke-width="4"/>
</svg>
